<mxfile host="app.diagrams.net" modified="2023-04-13T07:05:00.134Z" agent="Mozilla/5.0 (Macintosh; Intel Mac OS X 10_15_7) AppleWebKit/605.1.15 (KHTML, like Gecko) Version/16.4 Safari/605.1.15" etag="u2itWTHj-ae8HTaMbtyh" version="21.1.6" type="github">
  <diagram id="C5RBs43oDa-KdzZeNtuy" name="Page-1">
    <mxGraphModel dx="1018" dy="1467" grid="1" gridSize="10" guides="1" tooltips="1" connect="1" arrows="1" fold="1" page="1" pageScale="1" pageWidth="827" pageHeight="1169" math="0" shadow="0">
      <root>
        <mxCell id="WIyWlLk6GJQsqaUBKTNV-0" />
        <mxCell id="WIyWlLk6GJQsqaUBKTNV-1" parent="WIyWlLk6GJQsqaUBKTNV-0" />
        <mxCell id="uYg9HkwsXvl-mNU64GQq-3" style="edgeStyle=orthogonalEdgeStyle;rounded=0;orthogonalLoop=1;jettySize=auto;html=1;exitX=0.5;exitY=1;exitDx=0;exitDy=0;entryX=0.5;entryY=0;entryDx=0;entryDy=0;" edge="1" parent="WIyWlLk6GJQsqaUBKTNV-1" source="uYg9HkwsXvl-mNU64GQq-1" target="uYg9HkwsXvl-mNU64GQq-2">
          <mxGeometry relative="1" as="geometry" />
        </mxCell>
        <mxCell id="uYg9HkwsXvl-mNU64GQq-1" value="Checkout request from client." style="rounded=1;whiteSpace=wrap;html=1;" vertex="1" parent="WIyWlLk6GJQsqaUBKTNV-1">
          <mxGeometry x="320" y="120" width="120" height="60" as="geometry" />
        </mxCell>
        <mxCell id="uYg9HkwsXvl-mNU64GQq-5" style="edgeStyle=orthogonalEdgeStyle;rounded=0;orthogonalLoop=1;jettySize=auto;html=1;entryX=0.5;entryY=0;entryDx=0;entryDy=0;" edge="1" parent="WIyWlLk6GJQsqaUBKTNV-1" source="uYg9HkwsXvl-mNU64GQq-2" target="uYg9HkwsXvl-mNU64GQq-4">
          <mxGeometry relative="1" as="geometry" />
        </mxCell>
        <mxCell id="uYg9HkwsXvl-mNU64GQq-9" style="edgeStyle=orthogonalEdgeStyle;rounded=0;orthogonalLoop=1;jettySize=auto;html=1;entryX=0.5;entryY=0;entryDx=0;entryDy=0;" edge="1" parent="WIyWlLk6GJQsqaUBKTNV-1" source="uYg9HkwsXvl-mNU64GQq-2" target="uYg9HkwsXvl-mNU64GQq-8">
          <mxGeometry relative="1" as="geometry" />
        </mxCell>
        <mxCell id="uYg9HkwsXvl-mNU64GQq-2" value="Is client authenticated?" style="rounded=1;whiteSpace=wrap;html=1;" vertex="1" parent="WIyWlLk6GJQsqaUBKTNV-1">
          <mxGeometry x="320" y="220" width="120" height="60" as="geometry" />
        </mxCell>
        <mxCell id="uYg9HkwsXvl-mNU64GQq-11" style="edgeStyle=orthogonalEdgeStyle;rounded=0;orthogonalLoop=1;jettySize=auto;html=1;entryX=0;entryY=0.5;entryDx=0;entryDy=0;exitX=0.5;exitY=1;exitDx=0;exitDy=0;" edge="1" parent="WIyWlLk6GJQsqaUBKTNV-1" source="uYg9HkwsXvl-mNU64GQq-4" target="uYg9HkwsXvl-mNU64GQq-8">
          <mxGeometry relative="1" as="geometry">
            <Array as="points" />
          </mxGeometry>
        </mxCell>
        <mxCell id="uYg9HkwsXvl-mNU64GQq-4" value="Try to create customer with given credentials. No password." style="rounded=1;whiteSpace=wrap;html=1;" vertex="1" parent="WIyWlLk6GJQsqaUBKTNV-1">
          <mxGeometry x="100" y="240" width="120" height="120" as="geometry" />
        </mxCell>
        <mxCell id="uYg9HkwsXvl-mNU64GQq-6" value="Yes" style="text;html=1;strokeColor=none;fillColor=none;align=center;verticalAlign=middle;whiteSpace=wrap;rounded=0;" vertex="1" parent="WIyWlLk6GJQsqaUBKTNV-1">
          <mxGeometry x="380" y="285" width="60" height="30" as="geometry" />
        </mxCell>
        <mxCell id="uYg9HkwsXvl-mNU64GQq-7" value="Return rejection." style="rounded=1;whiteSpace=wrap;html=1;" vertex="1" parent="WIyWlLk6GJQsqaUBKTNV-1">
          <mxGeometry x="520" y="320" width="120" height="60" as="geometry" />
        </mxCell>
        <mxCell id="uYg9HkwsXvl-mNU64GQq-12" style="edgeStyle=orthogonalEdgeStyle;rounded=0;orthogonalLoop=1;jettySize=auto;html=1;entryX=0;entryY=0.5;entryDx=0;entryDy=0;" edge="1" parent="WIyWlLk6GJQsqaUBKTNV-1" source="uYg9HkwsXvl-mNU64GQq-8" target="uYg9HkwsXvl-mNU64GQq-7">
          <mxGeometry relative="1" as="geometry" />
        </mxCell>
        <mxCell id="uYg9HkwsXvl-mNU64GQq-16" style="edgeStyle=orthogonalEdgeStyle;rounded=0;orthogonalLoop=1;jettySize=auto;html=1;entryX=0.5;entryY=0;entryDx=0;entryDy=0;" edge="1" parent="WIyWlLk6GJQsqaUBKTNV-1" source="uYg9HkwsXvl-mNU64GQq-8" target="uYg9HkwsXvl-mNU64GQq-13">
          <mxGeometry relative="1" as="geometry" />
        </mxCell>
        <mxCell id="uYg9HkwsXvl-mNU64GQq-8" value="Are the &lt;br&gt;credentials valid?" style="rounded=1;whiteSpace=wrap;html=1;" vertex="1" parent="WIyWlLk6GJQsqaUBKTNV-1">
          <mxGeometry x="320" y="320" width="120" height="60" as="geometry" />
        </mxCell>
        <mxCell id="uYg9HkwsXvl-mNU64GQq-10" value="No" style="text;html=1;strokeColor=none;fillColor=none;align=center;verticalAlign=middle;whiteSpace=wrap;rounded=0;" vertex="1" parent="WIyWlLk6GJQsqaUBKTNV-1">
          <mxGeometry x="180" y="190" width="60" height="30" as="geometry" />
        </mxCell>
        <mxCell id="uYg9HkwsXvl-mNU64GQq-17" style="edgeStyle=orthogonalEdgeStyle;rounded=0;orthogonalLoop=1;jettySize=auto;html=1;" edge="1" parent="WIyWlLk6GJQsqaUBKTNV-1" source="uYg9HkwsXvl-mNU64GQq-13" target="uYg9HkwsXvl-mNU64GQq-18">
          <mxGeometry relative="1" as="geometry">
            <mxPoint x="520" y="470" as="targetPoint" />
          </mxGeometry>
        </mxCell>
        <mxCell id="uYg9HkwsXvl-mNU64GQq-21" style="edgeStyle=orthogonalEdgeStyle;rounded=0;orthogonalLoop=1;jettySize=auto;html=1;entryX=0.5;entryY=0;entryDx=0;entryDy=0;" edge="1" parent="WIyWlLk6GJQsqaUBKTNV-1" source="uYg9HkwsXvl-mNU64GQq-13" target="uYg9HkwsXvl-mNU64GQq-20">
          <mxGeometry relative="1" as="geometry" />
        </mxCell>
        <mxCell id="uYg9HkwsXvl-mNU64GQq-13" value="Check all current orders of the requested items. Is the current stock sufficient?" style="rounded=1;whiteSpace=wrap;html=1;" vertex="1" parent="WIyWlLk6GJQsqaUBKTNV-1">
          <mxGeometry x="320" y="420" width="120" height="100" as="geometry" />
        </mxCell>
        <mxCell id="uYg9HkwsXvl-mNU64GQq-14" value="No" style="text;html=1;strokeColor=none;fillColor=none;align=center;verticalAlign=middle;whiteSpace=wrap;rounded=0;" vertex="1" parent="WIyWlLk6GJQsqaUBKTNV-1">
          <mxGeometry x="450" y="310" width="60" height="30" as="geometry" />
        </mxCell>
        <mxCell id="uYg9HkwsXvl-mNU64GQq-15" value="Yes" style="text;html=1;strokeColor=none;fillColor=none;align=center;verticalAlign=middle;whiteSpace=wrap;rounded=0;" vertex="1" parent="WIyWlLk6GJQsqaUBKTNV-1">
          <mxGeometry x="380" y="380" width="60" height="40" as="geometry" />
        </mxCell>
        <mxCell id="uYg9HkwsXvl-mNU64GQq-18" value="Return rejection." style="rounded=1;whiteSpace=wrap;html=1;" vertex="1" parent="WIyWlLk6GJQsqaUBKTNV-1">
          <mxGeometry x="520" y="440" width="120" height="60" as="geometry" />
        </mxCell>
        <mxCell id="uYg9HkwsXvl-mNU64GQq-19" value="No" style="text;html=1;strokeColor=none;fillColor=none;align=center;verticalAlign=middle;whiteSpace=wrap;rounded=0;" vertex="1" parent="WIyWlLk6GJQsqaUBKTNV-1">
          <mxGeometry x="450" y="440" width="60" height="30" as="geometry" />
        </mxCell>
        <mxCell id="uYg9HkwsXvl-mNU64GQq-24" style="edgeStyle=orthogonalEdgeStyle;rounded=0;orthogonalLoop=1;jettySize=auto;html=1;entryX=0.5;entryY=0;entryDx=0;entryDy=0;" edge="1" parent="WIyWlLk6GJQsqaUBKTNV-1" source="uYg9HkwsXvl-mNU64GQq-20" target="uYg9HkwsXvl-mNU64GQq-23">
          <mxGeometry relative="1" as="geometry" />
        </mxCell>
        <mxCell id="uYg9HkwsXvl-mNU64GQq-20" value="Create order.&lt;br&gt;Publish in PubSub to payment handling. Return token to &lt;br&gt;client." style="rounded=1;whiteSpace=wrap;html=1;" vertex="1" parent="WIyWlLk6GJQsqaUBKTNV-1">
          <mxGeometry x="320" y="560" width="120" height="100" as="geometry" />
        </mxCell>
        <mxCell id="uYg9HkwsXvl-mNU64GQq-22" value="Yes" style="text;html=1;strokeColor=none;fillColor=none;align=center;verticalAlign=middle;whiteSpace=wrap;rounded=0;" vertex="1" parent="WIyWlLk6GJQsqaUBKTNV-1">
          <mxGeometry x="380" y="520" width="60" height="40" as="geometry" />
        </mxCell>
        <mxCell id="uYg9HkwsXvl-mNU64GQq-23" value="Client fetches the required details with the token it received. Makes payment." style="rounded=1;whiteSpace=wrap;html=1;" vertex="1" parent="WIyWlLk6GJQsqaUBKTNV-1">
          <mxGeometry x="320" y="700" width="120" height="100" as="geometry" />
        </mxCell>
        <mxCell id="uYg9HkwsXvl-mNU64GQq-28" style="edgeStyle=orthogonalEdgeStyle;rounded=0;orthogonalLoop=1;jettySize=auto;html=1;entryX=0.5;entryY=0;entryDx=0;entryDy=0;" edge="1" parent="WIyWlLk6GJQsqaUBKTNV-1" source="uYg9HkwsXvl-mNU64GQq-25" target="uYg9HkwsXvl-mNU64GQq-27">
          <mxGeometry relative="1" as="geometry" />
        </mxCell>
        <mxCell id="uYg9HkwsXvl-mNU64GQq-25" value="Payment handling finds out that a&amp;nbsp;payment has been made." style="rounded=1;whiteSpace=wrap;html=1;" vertex="1" parent="WIyWlLk6GJQsqaUBKTNV-1">
          <mxGeometry x="320" y="840" width="120" height="120" as="geometry" />
        </mxCell>
        <mxCell id="uYg9HkwsXvl-mNU64GQq-26" value="" style="endArrow=none;dashed=1;html=1;dashPattern=1 3;strokeWidth=2;rounded=0;exitX=0.5;exitY=0;exitDx=0;exitDy=0;entryX=0.5;entryY=1;entryDx=0;entryDy=0;" edge="1" parent="WIyWlLk6GJQsqaUBKTNV-1" source="uYg9HkwsXvl-mNU64GQq-25" target="uYg9HkwsXvl-mNU64GQq-23">
          <mxGeometry width="50" height="50" relative="1" as="geometry">
            <mxPoint x="390" y="770" as="sourcePoint" />
            <mxPoint x="440" y="720" as="targetPoint" />
          </mxGeometry>
        </mxCell>
        <mxCell id="uYg9HkwsXvl-mNU64GQq-31" style="edgeStyle=orthogonalEdgeStyle;rounded=0;orthogonalLoop=1;jettySize=auto;html=1;entryX=0.5;entryY=0;entryDx=0;entryDy=0;exitX=1;exitY=0.5;exitDx=0;exitDy=0;" edge="1" parent="WIyWlLk6GJQsqaUBKTNV-1" source="uYg9HkwsXvl-mNU64GQq-27" target="uYg9HkwsXvl-mNU64GQq-30">
          <mxGeometry relative="1" as="geometry">
            <Array as="points">
              <mxPoint x="490" y="1030" />
            </Array>
          </mxGeometry>
        </mxCell>
        <mxCell id="uYg9HkwsXvl-mNU64GQq-33" style="edgeStyle=orthogonalEdgeStyle;rounded=0;orthogonalLoop=1;jettySize=auto;html=1;entryX=0.5;entryY=0;entryDx=0;entryDy=0;exitX=0;exitY=0.5;exitDx=0;exitDy=0;" edge="1" parent="WIyWlLk6GJQsqaUBKTNV-1" source="uYg9HkwsXvl-mNU64GQq-27" target="uYg9HkwsXvl-mNU64GQq-32">
          <mxGeometry relative="1" as="geometry" />
        </mxCell>
        <mxCell id="uYg9HkwsXvl-mNU64GQq-27" value="Is payment correct?" style="rounded=1;whiteSpace=wrap;html=1;" vertex="1" parent="WIyWlLk6GJQsqaUBKTNV-1">
          <mxGeometry x="320" y="1000" width="120" height="60" as="geometry" />
        </mxCell>
        <mxCell id="uYg9HkwsXvl-mNU64GQq-47" style="edgeStyle=orthogonalEdgeStyle;rounded=0;orthogonalLoop=1;jettySize=auto;html=1;exitX=0.75;exitY=1;exitDx=0;exitDy=0;" edge="1" parent="WIyWlLk6GJQsqaUBKTNV-1" source="uYg9HkwsXvl-mNU64GQq-29">
          <mxGeometry relative="1" as="geometry">
            <mxPoint x="300" y="1270" as="targetPoint" />
          </mxGeometry>
        </mxCell>
        <mxCell id="uYg9HkwsXvl-mNU64GQq-29" value="Notify customer that order payment has been accepted, and that the order has been made." style="rounded=1;whiteSpace=wrap;html=1;" vertex="1" parent="WIyWlLk6GJQsqaUBKTNV-1">
          <mxGeometry x="210" y="1200" width="120" height="100" as="geometry" />
        </mxCell>
        <mxCell id="uYg9HkwsXvl-mNU64GQq-48" style="edgeStyle=orthogonalEdgeStyle;rounded=0;orthogonalLoop=1;jettySize=auto;html=1;" edge="1" parent="WIyWlLk6GJQsqaUBKTNV-1" source="uYg9HkwsXvl-mNU64GQq-30" target="uYg9HkwsXvl-mNU64GQq-46">
          <mxGeometry relative="1" as="geometry" />
        </mxCell>
        <mxCell id="uYg9HkwsXvl-mNU64GQq-30" value="Refund money." style="rounded=1;whiteSpace=wrap;html=1;" vertex="1" parent="WIyWlLk6GJQsqaUBKTNV-1">
          <mxGeometry x="430" y="1100" width="120" height="60" as="geometry" />
        </mxCell>
        <mxCell id="uYg9HkwsXvl-mNU64GQq-34" style="edgeStyle=orthogonalEdgeStyle;rounded=0;orthogonalLoop=1;jettySize=auto;html=1;entryX=0.5;entryY=0;entryDx=0;entryDy=0;" edge="1" parent="WIyWlLk6GJQsqaUBKTNV-1" source="uYg9HkwsXvl-mNU64GQq-32" target="uYg9HkwsXvl-mNU64GQq-29">
          <mxGeometry relative="1" as="geometry" />
        </mxCell>
        <mxCell id="uYg9HkwsXvl-mNU64GQq-32" value="Mark order as paid.&amp;nbsp;&lt;br&gt;Publish to order handling." style="rounded=1;whiteSpace=wrap;html=1;" vertex="1" parent="WIyWlLk6GJQsqaUBKTNV-1">
          <mxGeometry x="210" y="1100" width="120" height="60" as="geometry" />
        </mxCell>
        <mxCell id="uYg9HkwsXvl-mNU64GQq-36" value="Order gets completed." style="rounded=1;whiteSpace=wrap;html=1;" vertex="1" parent="WIyWlLk6GJQsqaUBKTNV-1">
          <mxGeometry x="210" y="1340" width="120" height="60" as="geometry" />
        </mxCell>
        <mxCell id="uYg9HkwsXvl-mNU64GQq-40" value="" style="endArrow=none;dashed=1;html=1;dashPattern=1 3;strokeWidth=2;rounded=0;exitX=0.5;exitY=1;exitDx=0;exitDy=0;entryX=0.5;entryY=0;entryDx=0;entryDy=0;" edge="1" parent="WIyWlLk6GJQsqaUBKTNV-1" source="uYg9HkwsXvl-mNU64GQq-29" target="uYg9HkwsXvl-mNU64GQq-36">
          <mxGeometry width="50" height="50" relative="1" as="geometry">
            <mxPoint x="390" y="950" as="sourcePoint" />
            <mxPoint x="440" y="900" as="targetPoint" />
          </mxGeometry>
        </mxCell>
        <mxCell id="uYg9HkwsXvl-mNU64GQq-43" value="No" style="text;html=1;strokeColor=none;fillColor=none;align=center;verticalAlign=middle;whiteSpace=wrap;rounded=0;" vertex="1" parent="WIyWlLk6GJQsqaUBKTNV-1">
          <mxGeometry x="490" y="1050" width="60" height="30" as="geometry" />
        </mxCell>
        <mxCell id="uYg9HkwsXvl-mNU64GQq-44" value="Yes" style="text;html=1;strokeColor=none;fillColor=none;align=center;verticalAlign=middle;whiteSpace=wrap;rounded=0;" vertex="1" parent="WIyWlLk6GJQsqaUBKTNV-1">
          <mxGeometry x="210" y="1045" width="60" height="40" as="geometry" />
        </mxCell>
        <mxCell id="uYg9HkwsXvl-mNU64GQq-49" style="edgeStyle=orthogonalEdgeStyle;rounded=0;orthogonalLoop=1;jettySize=auto;html=1;entryX=0.5;entryY=0;entryDx=0;entryDy=0;" edge="1" parent="WIyWlLk6GJQsqaUBKTNV-1" source="uYg9HkwsXvl-mNU64GQq-46" target="uYg9HkwsXvl-mNU64GQq-50">
          <mxGeometry relative="1" as="geometry">
            <mxPoint x="490" y="1320" as="targetPoint" />
          </mxGeometry>
        </mxCell>
        <mxCell id="uYg9HkwsXvl-mNU64GQq-46" value="&lt;span style=&quot;caret-color: rgb(0, 0, 0); color: rgb(0, 0, 0); font-family: Helvetica; font-size: 12px; font-style: normal; font-variant-caps: normal; font-weight: 400; letter-spacing: normal; text-align: center; text-indent: 0px; text-transform: none; word-spacing: 0px; -webkit-text-stroke-width: 0px; background-color: rgb(251, 251, 251); text-decoration: none; float: none; display: inline !important;&quot;&gt;Notify customer that the payment was made incorrectly and has been refunded.&lt;/span&gt;" style="rounded=1;whiteSpace=wrap;html=1;" vertex="1" parent="WIyWlLk6GJQsqaUBKTNV-1">
          <mxGeometry x="430" y="1200" width="120" height="100" as="geometry" />
        </mxCell>
        <mxCell id="uYg9HkwsXvl-mNU64GQq-50" value="Order gets&lt;br&gt;&amp;nbsp;cancelled." style="rounded=1;whiteSpace=wrap;html=1;" vertex="1" parent="WIyWlLk6GJQsqaUBKTNV-1">
          <mxGeometry x="430" y="1340" width="120" height="60" as="geometry" />
        </mxCell>
      </root>
    </mxGraphModel>
  </diagram>
</mxfile>
